<svg xmlns="http://www.w3.org/2000/svg" viewBox="0 0 960 760" role="img" aria-label="Africa region reference map">
  <defs>
    <linearGradient id="sea" x1="0" x2="1" y1="0" y2="1">
      <stop offset="0%" stop-color="#f8fbff"/>
      <stop offset="100%" stop-color="#e2f1ff"/>
    </linearGradient>
    <linearGradient id="land" x1="0" x2="0" y1="0" y2="1">
      <stop offset="0%" stop-color="#dff2d8"/>
      <stop offset="100%" stop-color="#b7dda8"/>
    </linearGradient>
    <clipPath id="africa-clip">
      <path id="africa-outline"
        d="M317 126
           C299 128 285 137 273 150
           C260 163 249 176 235 185
           C220 195 211 214 206 233
           C202 247 193 258 187 270
           C179 286 176 305 177 324
           C178 343 184 358 196 374
           C207 389 220 402 232 414
           C245 427 262 431 279 431
           C296 431 311 428 326 424
           C337 421 349 420 360 425
           C370 430 373 441 372 453
           C371 463 370 472 375 480
           C380 487 388 492 395 500
           C403 509 407 520 409 534
           C411 547 408 559 404 571
           C400 583 401 597 406 610
           C412 625 421 638 428 651
           C433 661 436 675 441 687
           L476 691
           C490 688 499 679 509 669
           C520 658 530 647 541 637
           C552 627 561 614 569 602
           C577 590 580 577 582 564
           C585 549 587 536 593 525
           C600 514 611 507 620 498
           C629 489 633 478 634 466
           C635 454 634 442 629 430
           C623 416 616 403 608 389
           C600 376 594 363 592 349
           C590 337 597 328 608 320
           C620 312 633 305 648 299
           C660 295 671 286 678 274
           C684 264 684 252 680 243
           C676 233 668 227 658 228
           C648 229 641 235 635 241
           C628 247 621 246 617 238
           C613 231 611 220 610 209
           C608 196 606 184 599 173
           C591 160 582 150 572 142
           C560 133 546 131 531 133
           C520 134 508 138 497 143
           C487 148 477 150 468 145
           C459 140 451 132 442 127
           C430 120 418 118 404 120
           C391 122 379 126 365 126
           C347 126 332 124 317 126 Z"
        />
      <path d="M546 265
               C561 274 574 287 582 303
               C589 319 590 337 585 354
               C580 371 570 385 558 397
               C546 409 532 415 517 419
               C500 423 484 422 468 417
               C452 412 439 403 430 390
               C422 378 417 364 418 349
               C419 333 425 318 435 305
               C447 290 462 279 479 272
               C497 265 517 261 546 265 Z"
            fill="#0f766e" opacity="0.16"/>
      <path d="M360 373
               C376 369 393 370 408 377
               C423 384 434 396 439 411
               C445 428 443 445 436 460
               C428 477 417 490 401 498
               C385 506 368 507 351 502
               C334 497 321 487 313 473
               C305 459 301 442 304 426
               C307 410 316 394 330 384
               C339 377 349 375 360 373 Z"
            fill="#f59e0b" opacity="0.15"/>
      <path d="M468 472
               C482 467 498 468 511 474
               C524 480 534 490 540 503
               C546 516 546 530 542 544
               C538 558 530 570 520 580
               C510 591 496 596 482 598
               C468 600 454 598 442 591
               C430 584 421 573 417 560
               C413 547 414 533 419 520
               C425 507 436 495 448 487
               C454 483 461 478 468 472 Z"
            fill="#38bdf8" opacity="0.12"/>
    </clipPath>
  </defs>
  <rect width="960" height="760" fill="url(#sea)"/>
  <rect x="28" y="28" width="904" height="704" rx="28" fill="#ffffff" stroke="#d6e4ee"/>
  <text x="480" y="82" text-anchor="middle" font-family="Inter, Arial, sans-serif" font-size="28" font-weight="800" fill="#102033">Africa Region Guide</text>
  <text x="480" y="112" text-anchor="middle" font-family="Inter, Arial, sans-serif" font-size="16" font-weight="600" fill="#334155">Trace the continent shape, then connect regions and routes</text>

  <g opacity="0.65" stroke="#cfe0ea" stroke-width="1.5">
    <path d="M100 170H860" />
    <path d="M100 250H860" />
    <path d="M100 330H860" />
    <path d="M100 410H860" />
    <path d="M100 490H860" />
    <path d="M100 570H860" />
    <path d="M180 160V680" />
    <path d="M300 160V680" />
    <path d="M420 160V680" />
    <path d="M540 160V680" />
    <path d="M660 160V680" />
    <path d="M780 160V680" />
  </g>

  <g transform="translate(70 78)">
    <path d="M110 104
             C136 84 165 72 198 64
             C258 50 334 48 397 62
             C434 71 466 83 492 99
             C514 112 531 129 541 150
             C549 167 554 188 552 210
             C550 230 542 249 531 264
             C522 277 513 287 505 296
             C490 313 488 335 492 356
             C495 374 494 396 486 413
             C478 431 462 444 441 452
             C414 462 382 466 349 468
             C314 470 280 473 245 481
             C220 486 198 486 179 478
             C160 470 145 456 133 439
             C123 424 117 406 114 387
             C111 365 113 343 120 322
             C127 301 136 282 143 264
             C150 245 151 226 145 209
             C139 190 127 174 118 157
             C108 139 105 120 110 104 Z"
          fill="#dfeef9" stroke="#abc2d7" stroke-width="6"/>

    <path d="M249 78
             C227 84 214 96 204 111
             C192 129 177 139 163 148
             C151 156 143 169 139 184
             C135 201 128 214 121 227
             C114 240 111 257 112 274
             C113 289 117 304 126 317
             C134 330 142 341 150 352
             C162 367 180 373 198 375
             C219 378 239 374 259 370
             C274 367 288 366 301 372
             C313 377 317 389 315 402
             C313 414 310 424 313 433
             C316 441 324 448 333 455
             C342 462 346 473 348 486
             C350 498 351 510 348 520
             C344 533 343 548 347 560
             C352 574 361 588 367 601
             C373 613 377 627 381 642
             C385 655 389 667 395 679
             L420 681
             C433 675 444 664 453 654
             C465 641 475 631 485 621
             C495 611 503 601 508 588
             C514 574 516 560 519 547
             C523 532 525 522 531 511
             C538 499 546 491 556 482
             C566 472 569 459 569 446
             C569 433 566 420 561 408
             C555 393 549 380 543 366
             C537 351 533 338 534 324
             C534 310 540 298 551 289
             C563 279 577 272 591 266
             C604 260 615 251 622 240
             C627 231 627 220 624 211
             C620 201 612 194 601 195
             C592 196 586 201 581 207
             C575 213 567 213 561 207
             C556 201 553 192 552 183
             C550 171 547 160 540 150
             C533 140 524 132 513 125
             C502 118 490 116 477 117
             C465 118 454 122 443 127
             C432 132 421 135 410 132
             C398 129 389 121 380 114
             C368 104 356 97 342 91
             C328 85 313 81 299 80
             C285 79 267 80 249 78 Z"
          fill="url(#land)" stroke="#5c8d65" stroke-width="6" stroke-linejoin="round" stroke-linecap="round"/>

    <path d="M417 137
             C423 139 430 145 435 152
             C441 160 444 169 444 177
             C444 186 440 194 433 199
             C424 206 414 208 404 206
             C396 205 389 201 383 195
             C377 189 372 181 372 172
             C372 164 376 157 382 151
             C389 145 397 140 407 137
             C410 136 413 136 417 137 Z"
          fill="#0f766e" opacity="0.22"/>

    <path d="M521 297
             C532 294 545 295 554 301
             C564 307 570 317 572 329
             C574 341 572 353 566 363
             C559 374 549 382 537 386
             C525 390 513 389 503 383
             C493 377 486 367 484 355
             C482 343 485 331 492 321
             C499 310 509 301 521 297 Z"
          fill="#14b8a6" opacity="0.14"/>

    <path d="M314 394
             C326 390 339 391 351 396
             C362 401 370 410 373 421
             C376 433 374 445 369 456
             C363 468 355 476 344 481
             C333 486 322 486 311 483
             C299 479 291 472 286 461
             C281 450 279 438 281 426
             C283 414 289 404 298 398
             C303 395 308 394 314 394 Z"
          fill="#f59e0b" opacity="0.14"/>

    <ellipse cx="505" cy="565" rx="24" ry="68" fill="#c9d7e3" opacity="0.4" transform="rotate(22 505 565)"/>

    <path d="M692 468 C715 476 735 484 756 495" fill="none" stroke="#0f766e" stroke-width="2.5" stroke-dasharray="7 8" opacity="0.7"/>
    <path d="M199 305 C170 308 145 314 118 325" fill="none" stroke="#0f766e" stroke-width="2.5" stroke-dasharray="7 8" opacity="0.7"/>
    <path d="M395 641 C394 664 394 685 392 705" fill="none" stroke="#0f766e" stroke-width="2.5" stroke-dasharray="7 8" opacity="0.7"/>

    <circle cx="756" cy="495" r="10" fill="#0f766e"/>
    <circle cx="118" cy="325" r="10" fill="#0f766e"/>
    <circle cx="392" cy="705" r="10" fill="#0f766e"/>
  </g>

  <g font-family="Inter, Arial, sans-serif" fill="#102033" font-weight="700">
    <text x="214" y="218" font-size="18">North Africa</text>
    <text x="118" y="468" font-size="18">West Africa</text>
    <text x="396" y="500" font-size="18">Central Africa</text>
    <text x="540" y="334" font-size="18">East Africa</text>
    <text x="465" y="668" font-size="18">Southern Africa</text>
  </g>

  <rect x="646" y="186" width="236" height="272" rx="22" fill="#f8fafc" stroke="#d6e4ee"/>
  <text x="764" y="224" text-anchor="middle" font-family="Inter, Arial, sans-serif" font-size="17" font-weight="800" fill="#102033">Map key</text>
  <g font-family="Inter, Arial, sans-serif" font-size="14" fill="#334155">
    <text x="670" y="260">- North Africa: coast and desert edge</text>
    <text x="670" y="294">- West Africa: trade, language, music</text>
    <text x="670" y="328">- East Africa: highlands, lakes, routes</text>
    <text x="670" y="362">- Central Africa: forests and rivers</text>
    <text x="670" y="396">- Southern Africa: plains and coasts</text>
  </g>
  <text x="764" y="444" text-anchor="middle" font-family="Inter, Arial, sans-serif" font-size="12" fill="#64748b">Madagascar is shown on the main map.</text>
</svg>
